  0
SECTION
  2
HEADER
  9
$ACADVER
  1
AC1009
  9
$EXTMAX
 10
218.949752807617
 20
218.949752807617
 30
0.0
  9
$EXTMIN
 10
0.0502525307238
 20
0.0502525307238
 30
0.0
  9
$INSUNITS
 70
     4
  9
$LUNITS
 70
     2
  9
$LUPREC
 70
     4
  9
$MEASUREMENT
 70
     1
  0
ENDSEC
  0
SECTION
  2
TABLES
  0
TABLE
  2
LAYER
 70
     1
  0
LAYER
  2
0
 70
     0
 62
     7
  6
Continuous
  0
LAYER
  2
Standard
 70
     0
 62
    70
  6
Continuous
  0
ENDTAB
  0
TABLE
  2
APPID
 70
     1
  0
APPID
  2
ACAD
 70
     0
  0
ENDTAB
  0
ENDSEC
  0
SECTION
  2
ENTITIES
  0
CIRCLE
  8
Standard
 10
10.5
 20
86.0
 30
0.0
 40
2.5
  0
CIRCLE
  8
Standard
 10
5.0
 20
214.0
 30
0.0
 40
1.6
  0
CIRCLE
  8
Standard
 10
214.0
 20
5.0
 30
0.0
 40
1.6
  0
CIRCLE
  8
Standard
 10
214.0
 20
214.0
 30
0.0
 40
1.6
  0
CIRCLE
  8
Standard
 10
5.0
 20
5.0
 30
0.0
 40
1.6
  0
CIRCLE
  8
Standard
 10
109.5
 20
88.5
 30
0.0
 40
1.6
  0
CIRCLE
  8
Standard
 10
99.5
 20
179.5
 30
0.0
 40
1.6
  0
CIRCLE
  8
Standard
 10
119.5
 20
179.5
 30
0.0
 40
1.6
  0
CIRCLE
  8
Standard
 10
119.5
 20
179.5
 30
0.0
 40
1.6
  0
CIRCLE
  8
Standard
 10
109.5
 20
129.5
 30
0.0
 40
1.6
  0
CIRCLE
  8
Standard
 10
99.5
 20
39.5
 30
0.0
 40
1.6
  0
CIRCLE
  8
Standard
 10
119.5
 20
39.5
 30
0.0
 40
1.6
  0
CIRCLE
  8
Standard
 10
119.5
 20
39.5
 30
0.0
 40
1.6
  0
CIRCLE
  8
Standard
 10
38.5
 20
86.0
 30
0.0
 40
2.5
  0
CIRCLE
  8
Standard
 10
10.5
 20
65.0
 30
0.0
 40
2.5
  0
CIRCLE
  8
Standard
 10
38.5
 20
65.0
 30
0.0
 40
2.5
  0
CIRCLE
  8
Standard
 10
10.5
 20
133.0
 30
0.0
 40
2.5
  0
CIRCLE
  8
Standard
 10
38.5
 20
133.0
 30
0.0
 40
2.5
  0
CIRCLE
  8
Standard
 10
10.5
 20
154.0
 30
0.0
 40
2.5
  0
CIRCLE
  8
Standard
 10
38.5
 20
154.0
 30
0.0
 40
2.5
  0
CIRCLE
  8
Standard
 10
208.5
 20
86.0
 30
0.0
 40
2.5
  0
CIRCLE
  8
Standard
 10
180.5
 20
86.0
 30
0.0
 40
2.5
  0
CIRCLE
  8
Standard
 10
208.5
 20
65.0
 30
0.0
 40
2.5
  0
CIRCLE
  8
Standard
 10
180.5
 20
65.0
 30
0.0
 40
2.5
  0
CIRCLE
  8
Standard
 10
208.5
 20
133.0
 30
0.0
 40
2.5
  0
CIRCLE
  8
Standard
 10
180.5
 20
133.0
 30
0.0
 40
2.5
  0
CIRCLE
  8
Standard
 10
208.5
 20
154.0
 30
0.0
 40
2.5
  0
CIRCLE
  8
Standard
 10
180.5
 20
154.0
 30
0.0
 40
2.5
  0
POLYLINE
  8
Standard
 66
     1
 10
0.0
 20
0.0
 30
0.0
 70
     1
  0
VERTEX
  8
Standard
 10
159.500000000001
 20
132.14535157081
 42
0.0
  0
VERTEX
  8
Standard
 10
156.605541530015
 20
132.14535157081
 42
0.3613138620759
  0
VERTEX
  8
Standard
 10
156.381318761621
 20
131.958993342628
 42
0.0
  0
VERTEX
  8
Standard
 10
155.306649242983
 20
126.182002520261
 42
-0.2548920915346
  0
VERTEX
  8
Standard
 10
155.02414863135
 20
125.834850463451
 42
0.0
  0
VERTEX
  8
Standard
 10
151.161406336113
 20
124.253539573746
 42
-0.2526804470854
  0
VERTEX
  8
Standard
 10
150.719762682903
 20
124.300725323863
 42
0.0
  0
VERTEX
  8
Standard
 10
145.891409124848
 20
127.614176528815
 42
0.3612947423089
  0
VERTEX
  8
Standard
 10
145.601096433229
 20
127.587402261936
 42
0.0
  0
VERTEX
  8
Standard
 10
141.474772907068
 20
123.461327070122
 42
0.3612951481214
  0
VERTEX
  8
Standard
 10
141.447981353111
 20
123.171015720416
 42
0.0
  0
VERTEX
  8
Standard
 10
144.701474606307
 20
118.429435692887
 42
-0.2570576447901
  0
VERTEX
  8
Standard
 10
144.744217176287
 20
117.977326897597
 42
0.0
  0
VERTEX
  8
Standard
 10
143.037295104873
 20
113.996377950012
 42
-0.2505147059629
  0
VERTEX
  8
Standard
 10
142.713231933531
 20
113.724731195958
 42
0.0
  0
VERTEX
  8
Standard
 10
137.102302046962
 20
112.681191629669
 42
0.3613495214797
  0
VERTEX
  8
Standard
 10
136.91593980579
 20
112.39594700445
 42
0.0
  0
VERTEX
  8
Standard
 10
136.916431313941
 20
106.620971962634
 42
0.361277311466
  0
VERTEX
  8
Standard
 10
137.162488235833
 20
106.385660375016
 42
0.0
  0
VERTEX
  8
Standard
 10
142.549341412693
 20
105.38332013143
 42
-0.2569759578075
  0
VERTEX
  8
Standard
 10
142.897853171835
 20
105.097414066789
 42
0.0
  0
VERTEX
  8
Standard
 10
144.593840665287
 20
100.859763255933
 42
-0.2505659071979
  0
VERTEX
  8
Standard
 10
144.545297977495
 20
100.421562478832
 42
0.0
  0
VERTEX
  8
Standard
 10
141.447346323498
 20
95.906389779643
 42
0.3613040929765
  0
VERTEX
  8
Standard
 10
141.474151263054
 20
95.616074090804
 42
0.0
  0
VERTEX
  8
Standard
 10
145.601259502886
 20
91.489710861183
 42
0.3613172326865
  0
VERTEX
  8
Standard
 10
145.891588767803
 20
91.462964333939
 42
0.0
  0
VERTEX
  8
Standard
 10
150.30670379748
 20
94.49373880707
 42
-0.2799911656474
  0
VERTEX
  8
Standard
 10
150.791478335164
 20
94.520708344048
 42
0.0
  0
VERTEX
  8
Standard
 10
152.708655415445
 20
93.497061578418
 42
0.4432324845416
  0
VERTEX
  8
Standard
 10
153.026135236743
 20
93.611401255996
 42
0.0
  0
VERTEX
  8
Standard
 10
157.080086360279
 20
103.407506032776
 42
0.408221090343
  0
VERTEX
  8
Standard
 10
156.96086132655
 20
103.703620799968
 42
-0.8122715109872
  0
VERTEX
  8
Standard
 10
159.500000000001
 20
115.828130611292
 42
-0.8122715109872
  0
VERTEX
  8
Standard
 10
162.039138673451
 20
103.703620799968
 42
0.408221090343
  0
VERTEX
  8
Standard
 10
161.919913639722
 20
103.407506032776
 42
0.0
  0
VERTEX
  8
Standard
 10
165.973864763258
 20
93.611401255996
 42
0.4432324845416
  0
VERTEX
  8
Standard
 10
166.291344584556
 20
93.497061578418
 42
0.0
  0
VERTEX
  8
Standard
 10
168.208521664837
 20
94.520708344048
 42
-0.2799911656474
  0
VERTEX
  8
Standard
 10
168.693296202522
 20
94.49373880707
 42
0.0
  0
VERTEX
  8
Standard
 10
173.108411232198
 20
91.462964333939
 42
0.3613172326865
  0
VERTEX
  8
Standard
 10
173.398740497114
 20
91.489710861183
 42
0.0
  0
VERTEX
  8
Standard
 10
177.525848736947
 20
95.616074090804
 42
0.3613040929765
  0
VERTEX
  8
Standard
 10
177.552653676503
 20
95.906389779643
 42
0.0
  0
VERTEX
  8
Standard
 10
174.454702022507
 20
100.421562478832
 42
-0.2505659071979
  0
VERTEX
  8
Standard
 10
174.406159334713
 20
100.859763255933
 42
0.0
  0
VERTEX
  8
Standard
 10
176.102146828166
 20
105.097414066789
 42
-0.2569759578075
  0
VERTEX
  8
Standard
 10
176.450658587307
 20
105.383320131429
 42
0.0
  0
VERTEX
  8
Standard
 10
181.837511764167
 20
106.385660375016
 42
0.361277311466
  0
VERTEX
  8
Standard
 10
182.083568686059
 20
106.620971962634
 42
0.0
  0
VERTEX
  8
Standard
 10
182.084060194211
 20
112.39594700445
 42
0.3613495214797
  0
VERTEX
  8
Standard
 10
181.897697953041
 20
112.681191629669
 42
0.0
  0
VERTEX
  8
Standard
 10
176.286768066471
 20
113.724731195958
 42
-0.2505147059629
  0
VERTEX
  8
Standard
 10
175.962704895128
 20
113.996377950012
 42
0.0
  0
VERTEX
  8
Standard
 10
174.255782823714
 20
117.977326897597
 42
-0.2570576447901
  0
VERTEX
  8
Standard
 10
174.298525393695
 20
118.429435692887
 42
0.0
  0
VERTEX
  8
Standard
 10
177.552018646891
 20
123.171015720416
 42
0.3612951481214
  0
VERTEX
  8
Standard
 10
177.525227092934
 20
123.461327070122
 42
0.0
  0
VERTEX
  8
Standard
 10
173.398903566774
 20
127.587402261936
 42
0.3612947423089
  0
VERTEX
  8
Standard
 10
173.108590875153
 20
127.614176528815
 42
0.0
  0
VERTEX
  8
Standard
 10
168.280237317099
 20
124.300725323863
 42
-0.2526804470854
  0
VERTEX
  8
Standard
 10
167.838593663888
 20
124.253539573746
 42
0.0
  0
VERTEX
  8
Standard
 10
163.975851368651
 20
125.834850463451
 42
-0.2548920915346
  0
VERTEX
  8
Standard
 10
163.69335075702
 20
126.182002520261
 42
0.0
  0
VERTEX
  8
Standard
 10
162.618681238379
 20
131.958993342628
 42
0.3613138620759
  0
VERTEX
  8
Standard
 10
162.394458469988
 20
132.14535157081
 42
0.0
  0
SEQEND
  0
POLYLINE
  8
Standard
 66
     1
 10
0.0
 20
0.0
 30
0.0
 70
     1
  0
VERTEX
  8
Standard
 10
137.5
 20
74.5
 42
0.0
  0
VERTEX
  8
Standard
 10
114.5
 20
74.5
 42
0.0
  0
VERTEX
  8
Standard
 10
114.5
 20
51.571067811866
 42
0.0
  0
VERTEX
  8
Standard
 10
131.571067811866
 20
34.5
 42
0.0
  0
VERTEX
  8
Standard
 10
177.5
 20
34.5
 42
0.0
  0
SEQEND
  0
POLYLINE
  8
Standard
 66
     1
 10
0.0
 20
0.0
 30
0.0
 70
     1
  0
VERTEX
  8
Standard
 10
104.5
 20
41.5
 42
0.0
  0
VERTEX
  8
Standard
 10
104.5
 20
37.5
 42
0.0
  0
VERTEX
  8
Standard
 10
105.0
 20
37.0
 42
0.0
  0
VERTEX
  8
Standard
 10
114.0
 20
37.0
 42
0.0
  0
VERTEX
  8
Standard
 10
114.5
 20
37.5
 42
0.0
  0
VERTEX
  8
Standard
 10
114.5
 20
41.5
 42
0.0
  0
VERTEX
  8
Standard
 10
114.0
 20
42.0
 42
0.0
  0
VERTEX
  8
Standard
 10
105.0
 20
42.0
 42
0.0
  0
SEQEND
  0
POLYLINE
  8
Standard
 66
     1
 10
0.0
 20
0.0
 30
0.0
 70
     1
  0
VERTEX
  8
Standard
 10
104.5
 20
31.5
 42
0.0
  0
VERTEX
  8
Standard
 10
104.5
 20
27.5
 42
0.0
  0
VERTEX
  8
Standard
 10
105.0
 20
27.0
 42
0.0
  0
VERTEX
  8
Standard
 10
114.0
 20
27.0
 42
0.0
  0
VERTEX
  8
Standard
 10
114.5
 20
27.5
 42
0.0
  0
VERTEX
  8
Standard
 10
114.5
 20
31.5
 42
0.0
  0
VERTEX
  8
Standard
 10
114.0
 20
32.0
 42
0.0
  0
VERTEX
  8
Standard
 10
105.0
 20
32.0
 42
0.0
  0
SEQEND
  0
POLYLINE
  8
Standard
 66
     1
 10
0.0
 20
0.0
 30
0.0
 70
     1
  0
VERTEX
  8
Standard
 10
104.5
 20
51.571067811866
 42
0.0
  0
VERTEX
  8
Standard
 10
104.5
 20
74.5
 42
0.0
  0
VERTEX
  8
Standard
 10
81.5
 20
74.5
 42
0.0
  0
VERTEX
  8
Standard
 10
41.5
 20
34.5
 42
0.0
  0
VERTEX
  8
Standard
 10
87.428932188135
 20
34.5
 42
0.0
  0
SEQEND
  0
POLYLINE
  8
Standard
 66
     1
 10
0.0
 20
0.0
 30
0.0
 70
     1
  0
VERTEX
  8
Standard
 10
137.5
 20
144.5
 42
0.0
  0
VERTEX
  8
Standard
 10
114.5
 20
144.5
 42
0.0
  0
VERTEX
  8
Standard
 10
114.5
 20
167.428932188134
 42
0.0
  0
VERTEX
  8
Standard
 10
131.571067811866
 20
184.5
 42
0.0
  0
VERTEX
  8
Standard
 10
177.5
 20
184.5
 42
0.0
  0
SEQEND
  0
POLYLINE
  8
Standard
 66
     1
 10
0.0
 20
0.0
 30
0.0
 70
     1
  0
VERTEX
  8
Standard
 10
104.5
 20
177.0
 42
0.0
  0
VERTEX
  8
Standard
 10
104.5
 20
182.0
 42
0.0
  0
VERTEX
  8
Standard
 10
114.5
 20
182.0
 42
0.0
  0
VERTEX
  8
Standard
 10
114.5
 20
177.0
 42
0.0
  0
SEQEND
  0
POLYLINE
  8
Standard
 66
     1
 10
0.0
 20
0.0
 30
0.0
 70
     1
  0
VERTEX
  8
Standard
 10
104.5
 20
187.0
 42
0.0
  0
VERTEX
  8
Standard
 10
104.5
 20
192.0
 42
0.0
  0
VERTEX
  8
Standard
 10
114.5
 20
192.0
 42
0.0
  0
VERTEX
  8
Standard
 10
114.5
 20
187.0
 42
0.0
  0
SEQEND
  0
POLYLINE
  8
Standard
 66
     1
 10
0.0
 20
0.0
 30
0.0
 70
     1
  0
VERTEX
  8
Standard
 10
104.5
 20
167.428932188135
 42
0.0
  0
VERTEX
  8
Standard
 10
104.5
 20
144.5
 42
0.0
  0
VERTEX
  8
Standard
 10
81.5
 20
144.5
 42
0.0
  0
VERTEX
  8
Standard
 10
41.5
 20
184.5
 42
0.0
  0
VERTEX
  8
Standard
 10
87.428932188135
 20
184.5
 42
0.0
  0
SEQEND
  0
POLYLINE
  8
Standard
 66
     1
 10
0.0
 20
0.0
 30
0.0
 70
     1
  0
VERTEX
  8
Standard
 10
59.5
 20
86.85464842919
 42
0.0
  0
VERTEX
  8
Standard
 10
56.605541530014
 20
86.85464842919
 42
-0.3613138620759
  0
VERTEX
  8
Standard
 10
56.381318761621
 20
87.041006657372
 42
0.0
  0
VERTEX
  8
Standard
 10
55.306649242982
 20
92.817997479739
 42
0.2548920915346
  0
VERTEX
  8
Standard
 10
55.02414863135
 20
93.165149536549
 42
0.0
  0
VERTEX
  8
Standard
 10
51.161406336112
 20
94.746460426254
 42
0.2526804470854
  0
VERTEX
  8
Standard
 10
50.719762682902
 20
94.699274676137
 42
0.0
  0
VERTEX
  8
Standard
 10
45.891409124847
 20
91.385823471185
 42
-0.3612947423089
  0
VERTEX
  8
Standard
 10
45.601096433228
 20
91.412597738064
 42
0.0
  0
VERTEX
  8
Standard
 10
41.474772907068
 20
95.538672929878
 42
-0.3612951481214
  0
VERTEX
  8
Standard
 10
41.44798135311
 20
95.828984279584
 42
0.0
  0
VERTEX
  8
Standard
 10
44.701474606307
 20
100.570564307113
 42
0.2570576447901
  0
VERTEX
  8
Standard
 10
44.744217176286
 20
101.022673102403
 42
0.0
  0
VERTEX
  8
Standard
 10
43.037295104872
 20
105.003622049988
 42
0.2505147059629
  0
VERTEX
  8
Standard
 10
42.71323193353
 20
105.275268804042
 42
0.0
  0
VERTEX
  8
Standard
 10
37.102302046961
 20
106.318808370331
 42
-0.3613495214797
  0
VERTEX
  8
Standard
 10
36.915939805789
 20
106.604052995549
 42
0.0
  0
VERTEX
  8
Standard
 10
36.91643131394
 20
112.379028037366
 42
-0.361277311466
  0
VERTEX
  8
Standard
 10
37.162488235832
 20
112.614339624984
 42
0.0
  0
VERTEX
  8
Standard
 10
42.549341412692
 20
113.616679868571
 42
0.2569759578075
  0
VERTEX
  8
Standard
 10
42.897853171835
 20
113.902585933211
 42
0.0
  0
VERTEX
  8
Standard
 10
44.593840665286
 20
118.140236744067
 42
0.2505659071979
  0
VERTEX
  8
Standard
 10
44.545297977494
 20
118.578437521168
 42
0.0
  0
VERTEX
  8
Standard
 10
41.447346323497
 20
123.093610220357
 42
-0.3613040929765
  0
VERTEX
  8
Standard
 10
41.474151263053
 20
123.383925909196
 42
0.0
  0
VERTEX
  8
Standard
 10
45.601259502886
 20
127.510289138817
 42
-0.3613172326865
  0
VERTEX
  8
Standard
 10
45.891588767802
 20
127.537035666061
 42
0.0
  0
VERTEX
  8
Standard
 10
50.306703797479
 20
124.50626119293
 42
0.2799911656474
  0
VERTEX
  8
Standard
 10
50.791478335163
 20
124.479291655952
 42
0.0
  0
VERTEX
  8
Standard
 10
52.708655415445
 20
125.502938421582
 42
-0.4432324845416
  0
VERTEX
  8
Standard
 10
53.026135236742
 20
125.388598744004
 42
0.0
  0
VERTEX
  8
Standard
 10
57.080086360278
 20
115.592493967224
 42
-0.408221090343
  0
VERTEX
  8
Standard
 10
56.960861326549
 20
115.296379200032
 42
0.8122715109872
  0
VERTEX
  8
Standard
 10
59.5
 20
103.171869388708
 42
0.8122715109872
  0
VERTEX
  8
Standard
 10
62.03913867345
 20
115.296379200032
 42
-0.408221090343
  0
VERTEX
  8
Standard
 10
61.919913639721
 20
115.592493967224
 42
0.0
  0
VERTEX
  8
Standard
 10
65.973864763257
 20
125.388598744004
 42
-0.4432324845416
  0
VERTEX
  8
Standard
 10
66.291344584555
 20
125.502938421582
 42
0.0
  0
VERTEX
  8
Standard
 10
68.208521664836
 20
124.479291655952
 42
0.2799911656474
  0
VERTEX
  8
Standard
 10
68.693296202521
 20
124.50626119293
 42
0.0
  0
VERTEX
  8
Standard
 10
73.108411232197
 20
127.537035666061
 42
-0.3613172326865
  0
VERTEX
  8
Standard
 10
73.398740497113
 20
127.510289138817
 42
0.0
  0
VERTEX
  8
Standard
 10
77.525848736946
 20
123.383925909196
 42
-0.3613040929765
  0
VERTEX
  8
Standard
 10
77.552653676503
 20
123.093610220357
 42
0.0
  0
VERTEX
  8
Standard
 10
74.454702022506
 20
118.578437521168
 42
0.2505659071979
  0
VERTEX
  8
Standard
 10
74.406159334713
 20
118.140236744067
 42
0.0
  0
VERTEX
  8
Standard
 10
76.102146828165
 20
113.902585933211
 42
0.2569759578075
  0
VERTEX
  8
Standard
 10
76.450658587306
 20
113.616679868571
 42
0.0
  0
VERTEX
  8
Standard
 10
81.837511764166
 20
112.614339624984
 42
-0.361277311466
  0
VERTEX
  8
Standard
 10
82.083568686058
 20
112.379028037366
 42
0.0
  0
VERTEX
  8
Standard
 10
82.08406019421
 20
106.604052995549
 42
-0.3613495214797
  0
VERTEX
  8
Standard
 10
81.89769795304
 20
106.318808370331
 42
0.0
  0
VERTEX
  8
Standard
 10
76.28676806647
 20
105.275268804042
 42
0.2505147059629
  0
VERTEX
  8
Standard
 10
75.962704895127
 20
105.003622049988
 42
0.0
  0
VERTEX
  8
Standard
 10
74.255782823712
 20
101.022673102403
 42
0.2570576447901
  0
VERTEX
  8
Standard
 10
74.298525393694
 20
100.570564307113
 42
0.0
  0
VERTEX
  8
Standard
 10
77.55201864689
 20
95.828984279584
 42
-0.3612951481214
  0
VERTEX
  8
Standard
 10
77.525227092933
 20
95.538672929878
 42
0.0
  0
VERTEX
  8
Standard
 10
73.398903566773
 20
91.412597738064
 42
-0.3612947423089
  0
VERTEX
  8
Standard
 10
73.108590875152
 20
91.385823471185
 42
0.0
  0
VERTEX
  8
Standard
 10
68.280237317098
 20
94.699274676137
 42
0.2526804470854
  0
VERTEX
  8
Standard
 10
67.838593663887
 20
94.746460426254
 42
0.0
  0
VERTEX
  8
Standard
 10
63.97585136865
 20
93.165149536549
 42
0.2548920915346
  0
VERTEX
  8
Standard
 10
63.693350757019
 20
92.817997479739
 42
0.0
  0
VERTEX
  8
Standard
 10
62.618681238378
 20
87.041006657372
 42
-0.3613138620759
  0
VERTEX
  8
Standard
 10
62.394458469987
 20
86.85464842919
 42
0.0
  0
SEQEND
  0
POLYLINE
  8
Standard
 66
     1
 10
0.0
 20
0.0
 30
0.0
 70
     0
  0
VERTEX
  8
Standard
 10
187.5
 20
194.5
 42
0.0
  0
VERTEX
  8
Standard
 10
31.5
 20
194.5
 42
0.0
  0
VERTEX
  8
Standard
 10
8.5
 20
217.5
 42
1.0
  0
VERTEX
  8
Standard
 10
1.5
 20
210.5
 42
0.0
  0
VERTEX
  8
Standard
 10
19.5
 20
192.5
 42
0.0
  0
VERTEX
  8
Standard
 10
19.5
 20
172.5
 42
0.0
  0
VERTEX
  8
Standard
 10
5.0
 20
158.0
 42
0.0
  0
VERTEX
  8
Standard
 10
5.0
 20
129.0
 42
0.0
  0
VERTEX
  8
Standard
 10
19.5
 20
114.5
 42
0.0
  0
VERTEX
  8
Standard
 10
19.5
 20
104.5
 42
0.0
  0
VERTEX
  8
Standard
 10
5.0
 20
90.0
 42
0.0
  0
VERTEX
  8
Standard
 10
5.0
 20
61.0
 42
0.0
  0
VERTEX
  8
Standard
 10
19.5
 20
46.5
 42
0.0
  0
VERTEX
  8
Standard
 10
19.5
 20
26.5
 42
0.0
  0
VERTEX
  8
Standard
 10
1.5
 20
8.5
 42
1.0
  0
VERTEX
  8
Standard
 10
8.5
 20
1.5
 42
0.0
  0
VERTEX
  8
Standard
 10
31.5
 20
24.5
 42
0.0
  0
VERTEX
  8
Standard
 10
187.5
 20
24.5
 42
0.0
  0
VERTEX
  8
Standard
 10
210.5
 20
1.5
 42
1.0
  0
VERTEX
  8
Standard
 10
217.5
 20
8.5
 42
0.0
  0
VERTEX
  8
Standard
 10
199.5
 20
26.5
 42
0.0
  0
VERTEX
  8
Standard
 10
199.5
 20
46.5
 42
0.0
  0
VERTEX
  8
Standard
 10
214.0
 20
61.0
 42
0.0
  0
VERTEX
  8
Standard
 10
214.0
 20
90.0
 42
0.0
  0
VERTEX
  8
Standard
 10
199.5
 20
104.5
 42
0.0
  0
VERTEX
  8
Standard
 10
199.5
 20
114.5
 42
0.0
  0
VERTEX
  8
Standard
 10
214.0
 20
129.0
 42
0.0
  0
VERTEX
  8
Standard
 10
214.0
 20
158.0
 42
0.0
  0
VERTEX
  8
Standard
 10
199.5
 20
172.5
 42
0.0
  0
VERTEX
  8
Standard
 10
199.5
 20
192.5
 42
0.0
  0
VERTEX
  8
Standard
 10
217.5
 20
210.5
 42
1.0
  0
VERTEX
  8
Standard
 10
210.5
 20
217.5
 42
0.0
  0
VERTEX
  8
Standard
 10
187.5
 20
194.5
 42
0.0
  0
VERTEX
  8
Standard
 10
31.5
 20
194.5
 42
0.0
  0
SEQEND
  0
ENDSEC
  0
EOF
